<mxfile host="app.diagrams.net" modified="2024-02-24T12:37:07.187Z" agent="Mozilla/5.0 (Windows NT 10.0; Win64; x64) AppleWebKit/537.36 (KHTML, like Gecko) Chrome/121.0.0.0 Safari/537.36" version="22.1.21" etag="Yyug-9jQfHBxTxt98z1a" type="github">
  <diagram name="Seite-1" id="rMLgrbD0j2mAKlOxSCou">
    <mxGraphModel>
      <root>
        <mxCell id="0" />
        <mxCell id="1" parent="0" />
      </root>
    </mxGraphModel>
  </diagram>
</mxfile>
